<svg xmlns="http://www.w3.org/2000/svg" viewBox="0 0 798.74 1365.44" role="img" aria-label="Jerrari Design">
  <defs>
    <linearGradient id="jdl-grad" x1="82.85" y1="547.74" x2="716.19" y2="547.74" gradientUnits="userSpaceOnUse">
      <stop offset="0" stop-color="#72C6EF"/>
      <stop offset="1" stop-color="#379AD5"/>
    </linearGradient>
  </defs>
  <g>
    <path fill="#59595B" d="M657.4,141.35L24.31,774.44L0,798.74l0.06,34.37L0.3,983.65l0,2.2l0.12,2.19c5.3,96.98,45.68,188.35,113.8,257.73c0.86,0.95,1.75,1.88,2.66,2.79l0.02,0.02l0.02,0.02c38.1,38.06,82.56,67.55,132.14,87.64c23.82,9.65,48.73,17.03,74.02,21.92c25.03,4.84,50.66,7.3,76.18,7.3c25.54,0,51.18-2.46,76.23-7.31c25.31-4.9,50.23-12.28,74.06-21.95c49.61-20.12,94.09-49.64,132.2-87.75c18.55-18.55,35.34-39.03,49.89-60.85c14.41-21.62,26.77-44.75,36.71-68.76c9.94-24.01,17.57-49.1,22.66-74.58c5.14-25.72,7.75-52.06,7.75-78.3v-316.7V534.58v-60.02V350.67v-2.65V199.9V0L657.4,141.35z"/>
    <polygon fill="url(#jdl-grad)" points="716.19,199.65 82.85,832.98 82.85,895.82 716.19,262.49"/>
    <path fill="#F06A35" d="M631.44,733.99l-41.89,41.89c-0.03,0.03-0.05,0.07-0.05,0.12v188.49c0,50.9-19.78,100.03-55.82,135.98c-52.72,52.6-128.64,67.8-194.78,45.62c-0.06-0.02-0.13,0-0.17,0.04l-32.38,32.38c-0.08,0.08-0.06,0.23,0.05,0.28c84.01,36.71,185.31,21.32,254.82-46.18c45.37-44.06,70.5-104.92,70.5-168.16V734.11C631.73,733.96,631.55,733.89,631.44,733.99z"/>
    <path fill="#F06A35" d="M175.67,1189.77l24.31-24.31l35.28-35.28l29.86-29.86l24.4-24.4l35.2-35.2c0.07-0.07,0.17-0.07,0.24,0c40.32,40.2,105.05,41.05,146.4,2.55c21.71-20.2,33.69-48.76,33.69-78.42V860.79c0-0.15-0.18-0.23-0.29-0.12L399.78,965.66c-0.11,0.11-0.29,0.03-0.29-0.12V667.43c0-0.04,0.02-0.09,0.05-0.12l-316.2,316.2c4.4,80.48,38.86,152.95,92.33,206.39C175.67,1189.86,175.63,1189.8,175.67,1189.77z"/>
    <path fill="#F06A35" d="M483.99,704.31c-0.03,0.03-0.05,0.08-0.05,0.12v58.9c0,0.15,0.18,0.23,0.29,0.12L715.9,534.46c0.11-0.11,0.29-0.03,0.29,0.12v-60.02c0,0.05-0.02,0.09-0.05,0.12L483.99,704.31z"/>
    <path fill="#FFFFFF" d="M716.19,474.56V351.08c0-0.15-0.18-0.23-0.29-0.12L399.54,667.32c-0.03,0.03-0.05,0.07-0.05,0.12v298.11c0,0.15,0.18,0.23,0.29,0.12l104.99-104.99c0.11-0.11,0.29-0.03,0.29,0.12v104.06c0,29.65-11.98,58.21-33.69,78.42c-41.36,38.5-106.08,37.64-146.4-2.55c-0.07-0.07-0.17-0.07-0.24,0l-35.2,35.2l-24.4,24.4l-29.86,29.86l-35.28,35.28l-24.31,24.31c-0.07,0.07-0.07,0.17,0,0.24c123.69,123.56,324.12,123.52,447.76-0.12c59.39-59.39,92.76-139.94,92.76-223.94v-316.7V534.58c0-0.15-0.18-0.23-0.29-0.12L484.23,763.45c-0.11,0.11-0.29,0.03-0.29-0.12v-58.9c0-0.05,0.02-0.09,0.05-0.12l232.14-229.63C716.17,474.65,716.19,474.61,716.19,474.56z M589.51,964.49V776c0-0.04,0.02-0.09,0.05-0.12l41.89-41.89c0.11-0.11,0.29-0.03,0.29,0.12v230.34c0,63.24-25.13,124.1-70.5,168.16c-69.51,67.5-170.81,82.89-254.82,46.18c-0.11-0.05-0.14-0.19-0.05-0.28l32.38-32.38c0.05-0.05,0.11-0.06,0.17-0.04c66.14,22.18,142.06,6.98,194.78-45.62C569.73,1064.52,589.51,1015.39,589.51,964.49z"/>
    <path fill="#C05627" d="M631.44,733.99l-41.89,41.89c-0.03,0.03-0.05,0.07-0.05,0.12v188.49c0,50.9-19.78,100.03-55.82,135.98c-52.72,52.6-128.64,67.8-194.78,45.62c-0.06-0.02-0.13,0-0.17,0.04l-32.38,32.38c-0.08,0.08-0.06,0.23,0.05,0.28c20.71,9.05,42.46,14.92,64.53,17.63l18.48-18.48c0.04-0.05,0.11-0.06,0.17-0.04c26.76,8.98,55.12,11.83,82.9,8.56c32.31-10.67,62.75-28.62,88.73-53.85c45.37-44.06,70.5-104.92,70.5-168.16V734.11C631.73,733.96,631.55,733.89,631.44,733.99z"/>
    <path fill="#C05627" d="M483.99,704.31c-0.03,0.03-0.05,0.08-0.05,0.12v58.9c0,0.15,0.18,0.23,0.29,0.12L715.9,534.46c0.11-0.11,0.29-0.03,0.29,0.12v-60.02c0,0.05-0.02,0.09-0.05,0.12L483.99,704.31z"/>
    <path fill="#C05627" d="M504.77,860.67l-54.59,54.59v82.09c0,0.15,0.18,0.23,0.29,0.12l54.59-54.59v-82.09C505.06,860.64,504.87,860.57,504.77,860.67z"/>
  </g>
</svg>
